# xmcd
#
# Track frame offsets:
#	150
#	15584
#	35840
#
# Disc length: 817 seconds
#
# Revision: 0
# Processed by: cddbd v1.5.2PL0 Copyright (c) Steve Scherf et al.
# Submitted via: audiograbber 1.83.01
#
DISCID=1d032f03
DTITLE=@tak - Joy! [CDM)
DYEAR=1998
DGENRE=Dance
TTITLE0=Joy! (Radio Version)
TTITLE1=Joy! (En-Joy Mix)
TTITLE2=Joy! (Joyride Mix)
EXTD=TR.
EXTT0=
EXTT1=
EXTT2=
PLAYORDER=
